{
  "source": "C:\\Users\\Peter\\Desktop\\stuff\\MIUN\\quantitative_research\\video_compression\\videos\\BVI-HD\\BVI-HD_CDVL_videos\\ORIG\\DiverFishAndRock_1920x1080_30fps.mp4",
  "output": "C:\\Users\\Peter\\Desktop\\stuff\\MIUN\\quantitative_research\\video_compression\\compressed_videos\\BVI-HD\\h264\\1\\DiverFishAndRock_1920x1080_30fps_h264.mp4",
  "codec": "h264",
  "ok": "Input #0, mov,mp4,m4a,3gp,3g2,mj2, from 'C:\\Users\\Peter\\Desktop\\stuff\\MIUN\\quantitative_research\\video_compression\\videos\\BVI-HD\\BVI-HD_CDVL_videos\\ORIG\\DiverFishAndRock_1920x1080_30fps.mp4':\n  Metadata:\n    major_brand     : isom\n    minor_version   : 512\n    compatible_brands: isomiso2avc1mp41\n    encoder         : Lavf54.28.101\n  Duration: 00:00:05.00, start: 0.000000, bitrate: 228854 kb/s\n  Stream #0:0[0x1](und): Video: h264 (High 4:4:4 Predictive) (avc1 / 0x31637661), yuv420p(progressive), 1920x1080, 228851 kb/s, 30 fps, 30 tbr, 30 tbn (default)\n    Metadata:\n      handler_name    : VideoHandler\n      vendor_id       : [0][0][0][0]\n[out#0/mp4 @ 000001bd5c139980] Codec AVOption b:a (set bitrate (in bits/s)) has not been used for any stream. The most likely reason is either wrong type (e.g. a video option with no video streams) or that it is a private option of some decoder which was not actually used for any stream.\nStream mapping:\n  Stream #0:0 -> #0:0 (h264 (native) -> h264 (libx264))\nPress [q] to stop, [?] for help\n[libx264 @ 000001bd5c9db840] using cpu capabilities: MMX2 SSE2Fast SSSE3 SSE4.2 AVX FMA3 BMI2 AVX2\n[libx264 @ 000001bd5c9db840] profile High, level 5.0, 4:2:0, 8-bit\n[libx264 @ 000001bd5c9db840] 264 - core 165 r3222 b35605a - H.264/MPEG-4 AVC codec - Copyleft 2003-2025 - http://www.videolan.org/x264.html - options: cabac=1 ref=5 deblock=1:0:0 analyse=0x3:0x113 me=hex subme=8 psy=1 psy_rd=1.00:0.00 mixed_ref=1 me_range=16 chroma_me=1 trellis=2 8x8dct=1 cqm=0 deadzone=21,11 fast_pskip=1 chroma_qp_offset=-2 threads=18 lookahead_threads=3 sliced_threads=0 nr=0 decimate=1 interlaced=0 bluray_compat=0 constrained_intra=0 bframes=3 b_pyramid=2 b_adapt=1 b_bias=0 direct=3 weightb=1 open_gop=0 weightp=2 keyint=250 keyint_min=25 scenecut=40 intra_refresh=0 rc_lookahead=50 rc=cbr mbtree=1 bitrate=1000 ratetol=1.0 qcomp=0.60 qpmin=0 qpmax=69 qpstep=4 vbv_maxrate=1000 vbv_bufsize=1000 nal_hrd=none filler=0 ip_ratio=1.40 aq=1:1.00\nOutput #0, mp4, to 'C:\\Users\\Peter\\Desktop\\stuff\\MIUN\\quantitative_research\\video_compression\\compressed_videos\\BVI-HD\\h264\\1\\DiverFishAndRock_1920x1080_30fps_h264.mp4':\n  Metadata:\n    major_brand     : isom\n    minor_version   : 512\n    compatible_brands: isomiso2avc1mp41\n    encoder         : Lavf62.3.100\n  Stream #0:0(und): Video: h264 (avc1 / 0x31637661), yuv420p(tv, progressive), 1920x1080, q=2-31, 1000 kb/s, 30 fps, 15360 tbn (default)\n    Metadata:\n      encoder         : Lavc62.11.100 libx264\n      handler_name    : VideoHandler\n      vendor_id       : [0][0][0][0]\n    Side data:\n      cpb: bitrate max/min/avg: 1000000/0/1000000 buffer size: 1000000 vbv_delay: N/A\nframe=    0 fps=0.0 q=0.0 size=       0KiB time=N/A bitrate=N/A speed=N/A elapsed=0:00:00.52    \nframe=    0 fps=0.0 q=0.0 size=       0KiB time=N/A bitrate=N/A speed=N/A elapsed=0:00:01.07    \nframe=    0 fps=0.0 q=0.0 size=       0KiB time=N/A bitrate=N/A speed=N/A elapsed=0:00:01.63    \nframe=   16 fps=7.2 q=47.0 size=       0KiB time=00:00:00.33 bitrate=   1.2kbits/s speed=0.151x elapsed=0:00:02.21    \nframe=   40 fps= 14 q=45.0 size=       0KiB time=00:00:01.13 bitrate=   0.3kbits/s speed=0.397x elapsed=0:00:02.85    \nframe=   68 fps= 20 q=44.0 size=       0KiB time=00:00:02.20 bitrate=   0.2kbits/s speed=0.638x elapsed=0:00:03.44    \nframe=  101 fps= 25 q=44.0 size=     256KiB time=00:00:03.30 bitrate= 635.6kbits/s speed=0.832x elapsed=0:00:03.96    \nframe=  150 fps= 33 q=-1.0 size=     512KiB time=00:00:04.83 bitrate= 867.9kbits/s speed=1.08x elapsed=0:00:04.49    \n[mp4 @ 000001bd5c139a80] Starting second pass: moving the moov atom to the beginning of the file\n[out#0/mp4 @ 000001bd5c139980] video:521KiB audio:0KiB subtitle:0KiB other streams:0KiB global headers:0KiB muxing overhead: 0.498521%\nframe=  150 fps= 33 q=-1.0 Lsize=     523KiB time=00:00:04.93 bitrate= 869.2kbits/s speed= 1.1x elapsed=0:00:04.49    \n[libx264 @ 000001bd5c9db840] frame I:1     Avg QP:40.12  size: 18458\n[libx264 @ 000001bd5c9db840] frame P:38    Avg QP:42.99  size:  7172\n[libx264 @ 000001bd5c9db840] frame B:111   Avg QP:47.36  size:  2177\n[libx264 @ 000001bd5c9db840] consecutive B-frames:  1.3%  0.0%  0.0% 98.7%\n[libx264 @ 000001bd5c9db840] mb I  I16..4: 43.1% 55.9%  1.0%\n[libx264 @ 000001bd5c9db840] mb P  I16..4:  4.4%  6.1%  0.0%  P16..4: 25.2%  1.4%  2.1%  0.0%  0.0%    skip:60.8%\n[libx264 @ 000001bd5c9db840] mb B  I16..4:  0.2%  0.2%  0.0%  B16..8: 20.9%  0.4%  0.0%  direct: 0.2%  skip:78.2%  L0:35.5% L1:64.2% BI: 0.2%\n[libx264 @ 000001bd5c9db840] 8x8 transform intra:57.1% inter:95.5%\n[libx264 @ 000001bd5c9db840] direct mvs  spatial:91.0% temporal:9.0%\n[libx264 @ 000001bd5c9db840] coded y,uvDC,uvAC intra: 11.3% 25.2% 1.7% inter: 0.9% 1.6% 0.0%\n[libx264 @ 000001bd5c9db840] i16 v,h,dc,p: 23% 42%  8% 27%\n[libx264 @ 000001bd5c9db840] i8 v,h,dc,ddl,ddr,vr,hd,vl,hu:  9%  6% 45%  5%  9%  7%  9%  4%  6%\n[libx264 @ 000001bd5c9db840] i4 v,h,dc,ddl,ddr,vr,hd,vl,hu:  9%  8% 22%  8% 15% 10% 13%  5% 11%\n[libx264 @ 000001bd5c9db840] i8c dc,h,v,p: 79% 13%  6%  2%\n[libx264 @ 000001bd5c9db840] Weighted P-Frames: Y:13.2% UV:0.0%\n[libx264 @ 000001bd5c9db840] ref P L0: 60.0% 11.0% 16.9%  5.3%  5.8%  1.0%\n[libx264 @ 000001bd5c9db840] ref B L0: 86.6%  9.2%  3.4%  0.8%\n[libx264 @ 000001bd5c9db840] ref B L1: 94.9%  5.1%\n[libx264 @ 000001bd5c9db840] kb/s:852.19\n",
  "seconds": 4.794104337692261,
  "probe_out": {}
}